<svg xmlns="http://www.w3.org/2000/svg" width="14" height="20" viewBox="0 0 14 20" fill="none">
<g clip-path="url(#clip0_266_122)">
<path d="M1 3C1 2.46957 1.21071 1.96086 1.58579 1.58579C1.96086 1.21071 2.46957 1 3 1H11C11.5304 1 12.0391 1.21071 12.4142 1.58579C12.7893 1.96086 13 2.46957 13 3V17C13 17.5304 12.7893 18.0391 12.4142 18.4142C12.0391 18.7893 11.5304 19 11 19H3C2.46957 19 1.96086 18.7893 1.58579 18.4142C1.21071 18.0391 1 17.5304 1 17V3Z" stroke="url(#paint0_linear_266_122)" stroke-width="2" stroke-linecap="round" stroke-linejoin="round"/>
<path d="M6 2H8" stroke="#FCA5A5" stroke-width="2" stroke-linecap="round" stroke-linejoin="round"/>
<path d="M7 15V15.01" stroke="#FCA5A5" stroke-width="2" stroke-linecap="round" stroke-linejoin="round"/>
</g>
<defs>
<linearGradient id="paint0_linear_266_122" x1="7" y1="1" x2="7" y2="19" gradientUnits="userSpaceOnUse">
<stop stop-color="#FCA5A5"/>
<stop offset="0.9999" stop-color="#FCA5A5"/>
</linearGradient>
<clipPath id="clip0_266_122">
<rect width="14" height="20" fill="white"/>
</clipPath>
</defs>
</svg>